<svg xmlns="http://www.w3.org/2000/svg" version="1.1" xmlns:xlink="http://www.w3.org/1999/xlink" xmlns:svgjs="http://svgjs.com/svgjs" width="1920" height="1080" preserveAspectRatio="none" viewBox="0 0 1920 1080"><g mask="url(&quot;#SvgjsMask1231&quot;)" fill="none"><rect width="1920" height="1080" x="0" y="0" fill="url(#SvgjsLinearGradient1232)"></rect><path d="M139.63 113.94L205.45 151.94L205.45 227.94L139.63 265.94L73.81 227.94L73.81 151.94zM139.63 797.94L205.45 835.94L205.45 911.94L139.63 949.94L73.81 911.94L73.81 835.94zM139.63 1025.94L205.45 1063.94L205.45 1139.94L139.63 1177.94L73.81 1139.94L73.81 1063.94zM205.45 683.94L271.27 721.94L271.27 797.94L205.45 835.94L139.63 797.94L139.63 721.94zM271.27 797.94L337.09 835.94L337.09 911.94L271.27 949.94L205.45 911.94L205.45 835.94zM205.45 911.94L271.27 949.94L271.27 1025.94L205.45 1063.94L139.63 1025.94L139.63 949.94zM402.91 569.94L468.73 607.94L468.73 683.94L402.91 721.94L337.09 683.94L337.09 607.94zM402.91 797.94L468.73 835.94L468.73 911.94L402.91 949.94L337.09 911.94L337.09 835.94zM534.55 113.94L600.37 151.94L600.37 227.94L534.55 265.94L468.73 227.94L468.73 151.94zM534.55 341.94L600.37 379.94L600.37 455.94L534.55 493.94L468.73 455.94L468.73 379.94zM468.73 455.94L534.55 493.94L534.55 569.94L468.73 607.94L402.91 569.94L402.91 493.94zM600.37 -0.06L666.19 37.94L666.19 113.94L600.37 151.94L534.55 113.94L534.55 37.94zM600.37 455.94L666.19 493.94L666.19 569.94L600.37 607.94L534.55 569.94L534.55 493.94zM600.37 683.94L666.19 721.94L666.19 797.94L600.37 835.94L534.55 797.94L534.55 721.94zM732.01 455.94L797.83 493.94L797.83 569.94L732.01 607.94L666.19 569.94L666.19 493.94zM929.47 1025.94L995.29 1063.94L995.29 1139.94L929.47 1177.94L863.65 1139.94L863.65 1063.94zM1061.11 113.94L1126.93 151.94L1126.93 227.94L1061.11 265.94L995.29 227.94L995.29 151.94zM1061.11 341.94L1126.93 379.94L1126.93 455.94L1061.11 493.94L995.29 455.94L995.29 379.94zM1061.11 1025.94L1126.93 1063.94L1126.93 1139.94L1061.11 1177.94L995.29 1139.94L995.29 1063.94zM1126.93 227.94L1192.75 265.94L1192.75 341.94L1126.93 379.94L1061.11 341.94L1061.11 265.94zM1126.93 455.94L1192.75 493.94L1192.75 569.94L1126.93 607.94L1061.11 569.94L1061.11 493.94zM1192.75 797.94L1258.57 835.94L1258.57 911.94L1192.75 949.94L1126.93 911.94L1126.93 835.94zM1126.93 911.94L1192.75 949.94L1192.75 1025.94L1126.93 1063.94L1061.11 1025.94L1061.11 949.94zM1258.57 227.94L1324.39 265.94L1324.39 341.94L1258.57 379.94L1192.75 341.94L1192.75 265.94zM1324.39 569.94L1390.21 607.94L1390.21 683.94L1324.39 721.94L1258.57 683.94L1258.57 607.94zM1258.57 683.94L1324.39 721.94L1324.39 797.94L1258.57 835.94L1192.75 797.94L1192.75 721.94zM1324.39 797.94L1390.21 835.94L1390.21 911.94L1324.39 949.94L1258.57 911.94L1258.57 835.94zM1390.21 -0.06L1456.03 37.94L1456.03 113.94L1390.21 151.94L1324.39 113.94L1324.39 37.94zM1456.03 797.94L1521.85 835.94L1521.85 911.94L1456.03 949.94L1390.21 911.94L1390.21 835.94zM1456.03 1025.94L1521.85 1063.94L1521.85 1139.94L1456.03 1177.94L1390.21 1139.94L1390.21 1063.94zM1521.85 -0.06L1587.67 37.94L1587.67 113.94L1521.85 151.94L1456.03 113.94L1456.03 37.94zM1587.67 1025.94L1653.49 1063.94L1653.49 1139.94L1587.67 1177.94L1521.85 1139.94L1521.85 1063.94zM1719.31 341.94L1785.12 379.94L1785.12 455.94L1719.31 493.94L1653.49 455.94L1653.49 379.94zM1653.49 455.94L1719.31 493.94L1719.31 569.94L1653.49 607.94L1587.67 569.94L1587.67 493.94zM1719.31 569.94L1785.12 607.94L1785.12 683.94L1719.31 721.94L1653.49 683.94L1653.49 607.94zM1850.94 341.94L1916.76 379.94L1916.76 455.94L1850.94 493.94L1785.12 455.94L1785.12 379.94zM1785.12 455.94L1850.94 493.94L1850.94 569.94L1785.12 607.94L1719.31 569.94L1719.31 493.94zM1916.76 -0.06L1982.58 37.94L1982.58 113.94L1916.76 151.94L1850.94 113.94L1850.94 37.94zM1916.76 911.94L1982.58 949.94L1982.58 1025.94L1916.76 1063.94L1850.94 1025.94L1850.94 949.94z" stroke="rgba(93, 3, 3, 1)" stroke-width="2"></path><path d="M132.03 113.94 a7.6 7.6 0 1 0 15.2 0 a7.6 7.6 0 1 0 -15.2 0zM197.85 151.94 a7.6 7.6 0 1 0 15.2 0 a7.6 7.6 0 1 0 -15.2 0zM197.85 227.94 a7.6 7.6 0 1 0 15.2 0 a7.6 7.6 0 1 0 -15.2 0zM132.03 265.94 a7.6 7.6 0 1 0 15.2 0 a7.6 7.6 0 1 0 -15.2 0zM66.21 227.94 a7.6 7.6 0 1 0 15.2 0 a7.6 7.6 0 1 0 -15.2 0zM66.21 151.94 a7.6 7.6 0 1 0 15.2 0 a7.6 7.6 0 1 0 -15.2 0zM132.03 797.94 a7.6 7.6 0 1 0 15.2 0 a7.6 7.6 0 1 0 -15.2 0zM197.85 835.94 a7.6 7.6 0 1 0 15.2 0 a7.6 7.6 0 1 0 -15.2 0zM197.85 911.94 a7.6 7.6 0 1 0 15.2 0 a7.6 7.6 0 1 0 -15.2 0zM132.03 949.94 a7.6 7.6 0 1 0 15.2 0 a7.6 7.6 0 1 0 -15.2 0zM66.21 911.94 a7.6 7.6 0 1 0 15.2 0 a7.6 7.6 0 1 0 -15.2 0zM66.21 835.94 a7.6 7.6 0 1 0 15.2 0 a7.6 7.6 0 1 0 -15.2 0zM132.03 1025.94 a7.6 7.6 0 1 0 15.2 0 a7.6 7.6 0 1 0 -15.2 0zM197.85 1063.94 a7.6 7.6 0 1 0 15.2 0 a7.6 7.6 0 1 0 -15.2 0zM197.85 1139.94 a7.6 7.6 0 1 0 15.2 0 a7.6 7.6 0 1 0 -15.2 0zM132.03 1177.94 a7.6 7.6 0 1 0 15.2 0 a7.6 7.6 0 1 0 -15.2 0zM66.21 1139.94 a7.6 7.6 0 1 0 15.2 0 a7.6 7.6 0 1 0 -15.2 0zM66.21 1063.94 a7.6 7.6 0 1 0 15.2 0 a7.6 7.6 0 1 0 -15.2 0zM197.85 683.94 a7.6 7.6 0 1 0 15.2 0 a7.6 7.6 0 1 0 -15.2 0zM263.67 721.94 a7.6 7.6 0 1 0 15.2 0 a7.6 7.6 0 1 0 -15.2 0zM263.67 797.94 a7.6 7.6 0 1 0 15.2 0 a7.6 7.6 0 1 0 -15.2 0zM132.03 721.94 a7.6 7.6 0 1 0 15.2 0 a7.6 7.6 0 1 0 -15.2 0zM329.49 835.94 a7.6 7.6 0 1 0 15.2 0 a7.6 7.6 0 1 0 -15.2 0zM329.49 911.94 a7.6 7.6 0 1 0 15.2 0 a7.6 7.6 0 1 0 -15.2 0zM263.67 949.94 a7.6 7.6 0 1 0 15.2 0 a7.6 7.6 0 1 0 -15.2 0zM263.67 1025.94 a7.6 7.6 0 1 0 15.2 0 a7.6 7.6 0 1 0 -15.2 0zM395.31 569.94 a7.6 7.6 0 1 0 15.2 0 a7.6 7.6 0 1 0 -15.2 0zM461.13 607.94 a7.6 7.6 0 1 0 15.2 0 a7.6 7.6 0 1 0 -15.2 0zM461.13 683.94 a7.6 7.6 0 1 0 15.2 0 a7.6 7.6 0 1 0 -15.2 0zM395.31 721.94 a7.6 7.6 0 1 0 15.2 0 a7.6 7.6 0 1 0 -15.2 0zM329.49 683.94 a7.6 7.6 0 1 0 15.2 0 a7.6 7.6 0 1 0 -15.2 0zM329.49 607.94 a7.6 7.6 0 1 0 15.2 0 a7.6 7.6 0 1 0 -15.2 0zM395.31 797.94 a7.6 7.6 0 1 0 15.2 0 a7.6 7.6 0 1 0 -15.2 0zM461.13 835.94 a7.6 7.6 0 1 0 15.2 0 a7.6 7.6 0 1 0 -15.2 0zM461.13 911.94 a7.6 7.6 0 1 0 15.2 0 a7.6 7.6 0 1 0 -15.2 0zM395.31 949.94 a7.6 7.6 0 1 0 15.2 0 a7.6 7.6 0 1 0 -15.2 0zM526.95 113.94 a7.6 7.6 0 1 0 15.2 0 a7.6 7.6 0 1 0 -15.2 0zM592.77 151.94 a7.6 7.6 0 1 0 15.2 0 a7.6 7.6 0 1 0 -15.2 0zM592.77 227.94 a7.6 7.6 0 1 0 15.2 0 a7.6 7.6 0 1 0 -15.2 0zM526.95 265.94 a7.6 7.6 0 1 0 15.2 0 a7.6 7.6 0 1 0 -15.2 0zM461.13 227.94 a7.6 7.6 0 1 0 15.2 0 a7.6 7.6 0 1 0 -15.2 0zM461.13 151.94 a7.6 7.6 0 1 0 15.2 0 a7.6 7.6 0 1 0 -15.2 0zM526.95 341.94 a7.6 7.6 0 1 0 15.2 0 a7.6 7.6 0 1 0 -15.2 0zM592.77 379.94 a7.6 7.6 0 1 0 15.2 0 a7.6 7.6 0 1 0 -15.2 0zM592.77 455.94 a7.6 7.6 0 1 0 15.2 0 a7.6 7.6 0 1 0 -15.2 0zM526.95 493.94 a7.6 7.6 0 1 0 15.2 0 a7.6 7.6 0 1 0 -15.2 0zM461.13 455.94 a7.6 7.6 0 1 0 15.2 0 a7.6 7.6 0 1 0 -15.2 0zM461.13 379.94 a7.6 7.6 0 1 0 15.2 0 a7.6 7.6 0 1 0 -15.2 0zM526.95 569.94 a7.6 7.6 0 1 0 15.2 0 a7.6 7.6 0 1 0 -15.2 0zM395.31 493.94 a7.6 7.6 0 1 0 15.2 0 a7.6 7.6 0 1 0 -15.2 0zM592.77 -0.06 a7.6 7.6 0 1 0 15.2 0 a7.6 7.6 0 1 0 -15.2 0zM658.59 37.94 a7.6 7.6 0 1 0 15.2 0 a7.6 7.6 0 1 0 -15.2 0zM658.59 113.94 a7.6 7.6 0 1 0 15.2 0 a7.6 7.6 0 1 0 -15.2 0zM526.95 37.94 a7.6 7.6 0 1 0 15.2 0 a7.6 7.6 0 1 0 -15.2 0zM658.59 493.94 a7.6 7.6 0 1 0 15.2 0 a7.6 7.6 0 1 0 -15.2 0zM658.59 569.94 a7.6 7.6 0 1 0 15.2 0 a7.6 7.6 0 1 0 -15.2 0zM592.77 607.94 a7.6 7.6 0 1 0 15.2 0 a7.6 7.6 0 1 0 -15.2 0zM592.77 683.94 a7.6 7.6 0 1 0 15.2 0 a7.6 7.6 0 1 0 -15.2 0zM658.59 721.94 a7.6 7.6 0 1 0 15.2 0 a7.6 7.6 0 1 0 -15.2 0zM658.59 797.94 a7.6 7.6 0 1 0 15.2 0 a7.6 7.6 0 1 0 -15.2 0zM592.77 835.94 a7.6 7.6 0 1 0 15.2 0 a7.6 7.6 0 1 0 -15.2 0zM526.95 797.94 a7.6 7.6 0 1 0 15.2 0 a7.6 7.6 0 1 0 -15.2 0zM526.95 721.94 a7.6 7.6 0 1 0 15.2 0 a7.6 7.6 0 1 0 -15.2 0zM724.41 455.94 a7.6 7.6 0 1 0 15.2 0 a7.6 7.6 0 1 0 -15.2 0zM790.23 493.94 a7.6 7.6 0 1 0 15.2 0 a7.6 7.6 0 1 0 -15.2 0zM790.23 569.94 a7.6 7.6 0 1 0 15.2 0 a7.6 7.6 0 1 0 -15.2 0zM724.41 607.94 a7.6 7.6 0 1 0 15.2 0 a7.6 7.6 0 1 0 -15.2 0zM921.87 1025.94 a7.6 7.6 0 1 0 15.2 0 a7.6 7.6 0 1 0 -15.2 0zM987.69 1063.94 a7.6 7.6 0 1 0 15.2 0 a7.6 7.6 0 1 0 -15.2 0zM987.69 1139.94 a7.6 7.6 0 1 0 15.2 0 a7.6 7.6 0 1 0 -15.2 0zM921.87 1177.94 a7.6 7.6 0 1 0 15.2 0 a7.6 7.6 0 1 0 -15.2 0zM856.05 1139.94 a7.6 7.6 0 1 0 15.2 0 a7.6 7.6 0 1 0 -15.2 0zM856.05 1063.94 a7.6 7.6 0 1 0 15.2 0 a7.6 7.6 0 1 0 -15.2 0zM1053.51 113.94 a7.6 7.6 0 1 0 15.2 0 a7.6 7.6 0 1 0 -15.2 0zM1119.33 151.94 a7.6 7.6 0 1 0 15.2 0 a7.6 7.6 0 1 0 -15.2 0zM1119.33 227.94 a7.6 7.6 0 1 0 15.2 0 a7.6 7.6 0 1 0 -15.2 0zM1053.51 265.94 a7.6 7.6 0 1 0 15.2 0 a7.6 7.6 0 1 0 -15.2 0zM987.69 227.94 a7.6 7.6 0 1 0 15.2 0 a7.6 7.6 0 1 0 -15.2 0zM987.69 151.94 a7.6 7.6 0 1 0 15.2 0 a7.6 7.6 0 1 0 -15.2 0zM1053.51 341.94 a7.6 7.6 0 1 0 15.2 0 a7.6 7.6 0 1 0 -15.2 0zM1119.33 379.94 a7.6 7.6 0 1 0 15.2 0 a7.6 7.6 0 1 0 -15.2 0zM1119.33 455.94 a7.6 7.6 0 1 0 15.2 0 a7.6 7.6 0 1 0 -15.2 0zM1053.51 493.94 a7.6 7.6 0 1 0 15.2 0 a7.6 7.6 0 1 0 -15.2 0zM987.69 455.94 a7.6 7.6 0 1 0 15.2 0 a7.6 7.6 0 1 0 -15.2 0zM987.69 379.94 a7.6 7.6 0 1 0 15.2 0 a7.6 7.6 0 1 0 -15.2 0zM1053.51 1025.94 a7.6 7.6 0 1 0 15.2 0 a7.6 7.6 0 1 0 -15.2 0zM1119.33 1063.94 a7.6 7.6 0 1 0 15.2 0 a7.6 7.6 0 1 0 -15.2 0zM1119.33 1139.94 a7.6 7.6 0 1 0 15.2 0 a7.6 7.6 0 1 0 -15.2 0zM1053.51 1177.94 a7.6 7.6 0 1 0 15.2 0 a7.6 7.6 0 1 0 -15.2 0zM1185.15 265.94 a7.6 7.6 0 1 0 15.2 0 a7.6 7.6 0 1 0 -15.2 0zM1185.15 341.94 a7.6 7.6 0 1 0 15.2 0 a7.6 7.6 0 1 0 -15.2 0zM1185.15 493.94 a7.6 7.6 0 1 0 15.2 0 a7.6 7.6 0 1 0 -15.2 0zM1185.15 569.94 a7.6 7.6 0 1 0 15.2 0 a7.6 7.6 0 1 0 -15.2 0zM1119.33 607.94 a7.6 7.6 0 1 0 15.2 0 a7.6 7.6 0 1 0 -15.2 0zM1053.51 569.94 a7.6 7.6 0 1 0 15.2 0 a7.6 7.6 0 1 0 -15.2 0zM1185.15 797.94 a7.6 7.6 0 1 0 15.2 0 a7.6 7.6 0 1 0 -15.2 0zM1250.97 835.94 a7.6 7.6 0 1 0 15.2 0 a7.6 7.6 0 1 0 -15.2 0zM1250.97 911.94 a7.6 7.6 0 1 0 15.2 0 a7.6 7.6 0 1 0 -15.2 0zM1185.15 949.94 a7.6 7.6 0 1 0 15.2 0 a7.6 7.6 0 1 0 -15.2 0zM1119.33 911.94 a7.6 7.6 0 1 0 15.2 0 a7.6 7.6 0 1 0 -15.2 0zM1119.33 835.94 a7.6 7.6 0 1 0 15.2 0 a7.6 7.6 0 1 0 -15.2 0zM1185.15 1025.94 a7.6 7.6 0 1 0 15.2 0 a7.6 7.6 0 1 0 -15.2 0zM1053.51 949.94 a7.6 7.6 0 1 0 15.2 0 a7.6 7.6 0 1 0 -15.2 0zM1250.97 227.94 a7.6 7.6 0 1 0 15.2 0 a7.6 7.6 0 1 0 -15.2 0zM1316.79 265.94 a7.6 7.6 0 1 0 15.2 0 a7.6 7.6 0 1 0 -15.2 0zM1316.79 341.94 a7.6 7.6 0 1 0 15.2 0 a7.6 7.6 0 1 0 -15.2 0zM1250.97 379.94 a7.6 7.6 0 1 0 15.2 0 a7.6 7.6 0 1 0 -15.2 0zM1316.79 569.94 a7.6 7.6 0 1 0 15.2 0 a7.6 7.6 0 1 0 -15.2 0zM1382.61 607.94 a7.6 7.6 0 1 0 15.2 0 a7.6 7.6 0 1 0 -15.2 0zM1382.61 683.94 a7.6 7.6 0 1 0 15.2 0 a7.6 7.6 0 1 0 -15.2 0zM1316.79 721.94 a7.6 7.6 0 1 0 15.2 0 a7.6 7.6 0 1 0 -15.2 0zM1250.97 683.94 a7.6 7.6 0 1 0 15.2 0 a7.6 7.6 0 1 0 -15.2 0zM1250.97 607.94 a7.6 7.6 0 1 0 15.2 0 a7.6 7.6 0 1 0 -15.2 0zM1316.79 797.94 a7.6 7.6 0 1 0 15.2 0 a7.6 7.6 0 1 0 -15.2 0zM1185.15 721.94 a7.6 7.6 0 1 0 15.2 0 a7.6 7.6 0 1 0 -15.2 0zM1382.61 835.94 a7.6 7.6 0 1 0 15.2 0 a7.6 7.6 0 1 0 -15.2 0zM1382.61 911.94 a7.6 7.6 0 1 0 15.2 0 a7.6 7.6 0 1 0 -15.2 0zM1316.79 949.94 a7.6 7.6 0 1 0 15.2 0 a7.6 7.6 0 1 0 -15.2 0zM1382.61 -0.06 a7.6 7.6 0 1 0 15.2 0 a7.6 7.6 0 1 0 -15.2 0zM1448.43 37.94 a7.6 7.6 0 1 0 15.2 0 a7.6 7.6 0 1 0 -15.2 0zM1448.43 113.94 a7.6 7.6 0 1 0 15.2 0 a7.6 7.6 0 1 0 -15.2 0zM1382.61 151.94 a7.6 7.6 0 1 0 15.2 0 a7.6 7.6 0 1 0 -15.2 0zM1316.79 113.94 a7.6 7.6 0 1 0 15.2 0 a7.6 7.6 0 1 0 -15.2 0zM1316.79 37.94 a7.6 7.6 0 1 0 15.2 0 a7.6 7.6 0 1 0 -15.2 0zM1448.43 797.94 a7.6 7.6 0 1 0 15.2 0 a7.6 7.6 0 1 0 -15.2 0zM1514.25 835.94 a7.6 7.6 0 1 0 15.2 0 a7.6 7.6 0 1 0 -15.2 0zM1514.25 911.94 a7.6 7.6 0 1 0 15.2 0 a7.6 7.6 0 1 0 -15.2 0zM1448.43 949.94 a7.6 7.6 0 1 0 15.2 0 a7.6 7.6 0 1 0 -15.2 0zM1448.43 1025.94 a7.6 7.6 0 1 0 15.2 0 a7.6 7.6 0 1 0 -15.2 0zM1514.25 1063.94 a7.6 7.6 0 1 0 15.2 0 a7.6 7.6 0 1 0 -15.2 0zM1514.25 1139.94 a7.6 7.6 0 1 0 15.2 0 a7.6 7.6 0 1 0 -15.2 0zM1448.43 1177.94 a7.6 7.6 0 1 0 15.2 0 a7.6 7.6 0 1 0 -15.2 0zM1382.61 1139.94 a7.6 7.6 0 1 0 15.2 0 a7.6 7.6 0 1 0 -15.2 0zM1382.61 1063.94 a7.6 7.6 0 1 0 15.2 0 a7.6 7.6 0 1 0 -15.2 0zM1514.25 -0.06 a7.6 7.6 0 1 0 15.2 0 a7.6 7.6 0 1 0 -15.2 0zM1580.07 37.94 a7.6 7.6 0 1 0 15.2 0 a7.6 7.6 0 1 0 -15.2 0zM1580.07 113.94 a7.6 7.6 0 1 0 15.2 0 a7.6 7.6 0 1 0 -15.2 0zM1514.25 151.94 a7.6 7.6 0 1 0 15.2 0 a7.6 7.6 0 1 0 -15.2 0zM1580.07 1025.94 a7.6 7.6 0 1 0 15.2 0 a7.6 7.6 0 1 0 -15.2 0zM1645.89 1063.94 a7.6 7.6 0 1 0 15.2 0 a7.6 7.6 0 1 0 -15.2 0zM1645.89 1139.94 a7.6 7.6 0 1 0 15.2 0 a7.6 7.6 0 1 0 -15.2 0zM1580.07 1177.94 a7.6 7.6 0 1 0 15.2 0 a7.6 7.6 0 1 0 -15.2 0zM1711.71 341.94 a7.6 7.6 0 1 0 15.2 0 a7.6 7.6 0 1 0 -15.2 0zM1777.52 379.94 a7.6 7.6 0 1 0 15.2 0 a7.6 7.6 0 1 0 -15.2 0zM1777.52 455.94 a7.6 7.6 0 1 0 15.2 0 a7.6 7.6 0 1 0 -15.2 0zM1711.71 493.94 a7.6 7.6 0 1 0 15.2 0 a7.6 7.6 0 1 0 -15.2 0zM1645.89 455.94 a7.6 7.6 0 1 0 15.2 0 a7.6 7.6 0 1 0 -15.2 0zM1645.89 379.94 a7.6 7.6 0 1 0 15.2 0 a7.6 7.6 0 1 0 -15.2 0zM1711.71 569.94 a7.6 7.6 0 1 0 15.2 0 a7.6 7.6 0 1 0 -15.2 0zM1645.89 607.94 a7.6 7.6 0 1 0 15.2 0 a7.6 7.6 0 1 0 -15.2 0zM1580.07 569.94 a7.6 7.6 0 1 0 15.2 0 a7.6 7.6 0 1 0 -15.2 0zM1580.07 493.94 a7.6 7.6 0 1 0 15.2 0 a7.6 7.6 0 1 0 -15.2 0zM1777.52 607.94 a7.6 7.6 0 1 0 15.2 0 a7.6 7.6 0 1 0 -15.2 0zM1777.52 683.94 a7.6 7.6 0 1 0 15.2 0 a7.6 7.6 0 1 0 -15.2 0zM1711.71 721.94 a7.6 7.6 0 1 0 15.2 0 a7.6 7.6 0 1 0 -15.2 0zM1645.89 683.94 a7.6 7.6 0 1 0 15.2 0 a7.6 7.6 0 1 0 -15.2 0zM1843.34 341.94 a7.6 7.6 0 1 0 15.2 0 a7.6 7.6 0 1 0 -15.2 0zM1909.16 379.94 a7.6 7.6 0 1 0 15.2 0 a7.6 7.6 0 1 0 -15.2 0zM1909.16 455.94 a7.6 7.6 0 1 0 15.2 0 a7.6 7.6 0 1 0 -15.2 0zM1843.34 493.94 a7.6 7.6 0 1 0 15.2 0 a7.6 7.6 0 1 0 -15.2 0zM1843.34 569.94 a7.6 7.6 0 1 0 15.2 0 a7.6 7.6 0 1 0 -15.2 0zM1909.16 -0.06 a7.6 7.6 0 1 0 15.2 0 a7.6 7.6 0 1 0 -15.2 0zM1974.98 37.94 a7.6 7.6 0 1 0 15.2 0 a7.6 7.6 0 1 0 -15.2 0zM1974.98 113.94 a7.6 7.6 0 1 0 15.2 0 a7.6 7.6 0 1 0 -15.2 0zM1909.16 151.94 a7.6 7.6 0 1 0 15.2 0 a7.6 7.6 0 1 0 -15.2 0zM1843.34 113.94 a7.6 7.6 0 1 0 15.2 0 a7.6 7.6 0 1 0 -15.2 0zM1843.34 37.94 a7.6 7.6 0 1 0 15.2 0 a7.6 7.6 0 1 0 -15.2 0zM1909.16 911.94 a7.6 7.6 0 1 0 15.2 0 a7.6 7.6 0 1 0 -15.2 0zM1974.98 949.94 a7.6 7.6 0 1 0 15.2 0 a7.6 7.6 0 1 0 -15.2 0zM1974.98 1025.94 a7.6 7.6 0 1 0 15.2 0 a7.6 7.6 0 1 0 -15.2 0zM1909.16 1063.94 a7.6 7.6 0 1 0 15.2 0 a7.6 7.6 0 1 0 -15.2 0zM1843.34 1025.94 a7.6 7.6 0 1 0 15.2 0 a7.6 7.6 0 1 0 -15.2 0zM1843.34 949.94 a7.6 7.6 0 1 0 15.2 0 a7.6 7.6 0 1 0 -15.2 0z" fill="rgba(93, 3, 3, 1)"></path><path d="M90.25 66.45L133.56 91.45L133.56 141.45L90.25 166.45L46.95 141.45L46.95 91.45zM46.95 291.45L90.25 316.45L90.25 366.45L46.95 391.45L3.65 366.45L3.65 316.45zM46.95 591.45L90.25 616.45L90.25 666.45L46.95 691.45L3.65 666.45L3.65 616.45zM46.95 741.45L90.25 766.45L90.25 816.45L46.95 841.45L3.65 816.45L3.65 766.45zM90.25 816.45L133.56 841.45L133.56 891.45L90.25 916.45L46.95 891.45L46.95 841.45zM90.25 966.45L133.56 991.45L133.56 1041.45L90.25 1066.45L46.95 1041.45L46.95 991.45zM133.56 291.45L176.86 316.45L176.86 366.45L133.56 391.45L90.25 366.45L90.25 316.45zM133.56 441.45L176.86 466.45L176.86 516.45L133.56 541.45L90.25 516.45L90.25 466.45zM263.46 816.45L306.76 841.45L306.76 891.45L263.46 916.45L220.16 891.45L220.16 841.45zM479.98 591.45L523.28 616.45L523.28 666.45L479.98 691.45L436.67 666.45L436.67 616.45zM523.28 666.45L566.58 691.45L566.58 741.45L523.28 766.45L479.98 741.45L479.98 691.45zM609.88 966.45L653.19 991.45L653.19 1041.45L609.88 1066.45L566.58 1041.45L566.58 991.45zM696.49 216.45L739.79 241.45L739.79 291.45L696.49 316.45L653.19 291.45L653.19 241.45zM653.19 441.45L696.49 466.45L696.49 516.45L653.19 541.45L609.88 516.45L609.88 466.45zM869.7 516.45L913 541.45L913 591.45L869.7 616.45L826.4 591.45L826.4 541.45zM1042.91 516.45L1086.21 541.45L1086.21 591.45L1042.91 616.45L999.61 591.45L999.61 541.45zM1042.91 666.45L1086.21 691.45L1086.21 741.45L1042.91 766.45L999.61 741.45L999.61 691.45zM999.61 741.45L1042.91 766.45L1042.91 816.45L999.61 841.45L956.3 816.45L956.3 766.45zM1086.21 -8.55L1129.51 16.45L1129.51 66.45L1086.21 91.45L1042.91 66.45L1042.91 16.45zM1086.21 141.45L1129.51 166.45L1129.51 216.45L1086.21 241.45L1042.91 216.45L1042.91 166.45zM1086.21 291.45L1129.51 316.45L1129.51 366.45L1086.21 391.45L1042.91 366.45L1042.91 316.45zM1129.51 516.45L1172.82 541.45L1172.82 591.45L1129.51 616.45L1086.21 591.45L1086.21 541.45zM1086.21 591.45L1129.51 616.45L1129.51 666.45L1086.21 691.45L1042.91 666.45L1042.91 616.45zM1216.12 516.45L1259.42 541.45L1259.42 591.45L1216.12 616.45L1172.82 591.45L1172.82 541.45zM1216.12 816.45L1259.42 841.45L1259.42 891.45L1216.12 916.45L1172.82 891.45L1172.82 841.45zM1302.72 216.45L1346.03 241.45L1346.03 291.45L1302.72 316.45L1259.42 291.45L1259.42 241.45zM1259.42 441.45L1302.72 466.45L1302.72 516.45L1259.42 541.45L1216.12 516.45L1216.12 466.45zM1302.72 816.45L1346.03 841.45L1346.03 891.45L1302.72 916.45L1259.42 891.45L1259.42 841.45zM1389.33 216.45L1432.63 241.45L1432.63 291.45L1389.33 316.45L1346.03 291.45L1346.03 241.45zM1346.03 291.45L1389.33 316.45L1389.33 366.45L1346.03 391.45L1302.72 366.45L1302.72 316.45zM1432.63 141.45L1475.93 166.45L1475.93 216.45L1432.63 241.45L1389.33 216.45L1389.33 166.45zM1432.63 741.45L1475.93 766.45L1475.93 816.45L1432.63 841.45L1389.33 816.45L1389.33 766.45zM1519.24 141.45L1562.54 166.45L1562.54 216.45L1519.24 241.45L1475.93 216.45L1475.93 166.45zM1519.24 1041.45L1562.54 1066.45L1562.54 1116.45L1519.24 1141.45L1475.93 1116.45L1475.93 1066.45zM1692.45 591.45L1735.75 616.45L1735.75 666.45L1692.45 691.45L1649.14 666.45L1649.14 616.45zM1735.75 666.45L1779.05 691.45L1779.05 741.45L1735.75 766.45L1692.45 741.45L1692.45 691.45zM1735.75 816.45L1779.05 841.45L1779.05 891.45L1735.75 916.45L1692.45 891.45L1692.45 841.45zM1779.05 291.45L1822.35 316.45L1822.35 366.45L1779.05 391.45L1735.75 366.45L1735.75 316.45zM1908.96 366.45L1952.26 391.45L1952.26 441.45L1908.96 466.45L1865.66 441.45L1865.66 391.45zM1865.66 441.45L1908.96 466.45L1908.96 516.45L1865.66 541.45L1822.35 516.45L1822.35 466.45zM1952.26 1041.45L1995.56 1066.45L1995.56 1116.45L1952.26 1141.45L1908.96 1116.45L1908.96 1066.45z" stroke="rgba(156, 6, 6, 0.93)" stroke-width="2"></path></g><defs><mask id="SvgjsMask1231"><rect width="1920" height="1080" fill="#ffffff"></rect></mask><linearGradient x1="0%" y1="50%" x2="100%" y2="50%" gradientUnits="userSpaceOnUse" id="SvgjsLinearGradient1232"><stop stop-color="rgba(15, 3, 3, 1)" offset="0"></stop><stop stop-color="rgba(158, 0, 0, 1)" offset="1"></stop></linearGradient></defs></svg>